# xmcd
#
# Track frame offsets:
#	150
#	21307
#	38228
#	52651
#	67082
#	81693
#	98097
#	113666
#	130914
#	145265
#
# Disc length: 2163 seconds
#
# Revision: 0
# Processed by: cddbd v1.5.2PL0 Copyright (c) Steve Scherf et al.
# Submitted via: EasyCDDAExtractor 2010.6.0.0
#
DISCID=8908710a
DTITLE=Alori Joh - The Love Religion
DYEAR=2010
DGENRE=Soul
TTITLE0=Materialistic
TTITLE1=Bring My Freak Out
TTITLE2=Happy Medium ft. Ab-soul
TTITLE3=Belonging ft. Javonte
TTITLE4=Let You Shine
TTITLE5=coastin' ft. Curtiss King
TTITLE6=Lovebird
TTITLE7=The Love Religion
TTITLE8=SINcerely Yours
TTITLE9=Me
EXTD=
EXTT0=
EXTT1=
EXTT2=
EXTT3=
EXTT4=
EXTT5=
EXTT6=
EXTT7=
EXTT8=
EXTT9=
PLAYORDER=
